<svg xmlns="http://www.w3.org/2000/svg" width="30.481" height="31.6" viewBox="0 0 30.481 31.6"><defs><style>.a{fill:#fff;}</style></defs><g transform="translate(57.831 41.6) rotate(180)"><g transform="translate(27.35 10)"><path class="a" d="M29.055-499.088l-1.705,1.705,6.188,6.188,6.188,6.188-6.188,6.188L27.35-472.63l1.705,1.705,1.705,1.705,7.841-7.867c4.312-4.332,7.841-7.893,7.841-7.92s-3.529-3.588-7.841-7.92L30.767-500.8Z" transform="translate(-27.35 500.806)"/><path class="a" d="M378.8-499.3l-1.7,1.7,5.945,5.931c3.272,3.259,6.07,6.037,6.228,6.182l.29.257-6.234,6.215L377.09-472.8l1.7,1.7,1.705,1.705,7.9-7.9,7.9-7.9-7.9-7.9-7.9-7.9Z" transform="translate(-365.813 501)"/></g></g></svg>