<svg xmlns="http://www.w3.org/2000/svg" width="53.625" height="10.401" viewBox="0 0 53.625 10.401"><defs><style>.a{fill:#2196f3;}</style></defs><g transform="translate(0 -197.747)"><path class="a" d="M10.492,201.779H7.848l1.322-2.29a1.166,1.166,0,0,0-2.019-1.166l-1.322,2.29-1.322-2.29a1.166,1.166,0,0,0-2.019,1.166l1.322,2.29H1.166a1.166,1.166,0,1,0,0,2.332H3.81L2.488,206.4a1.166,1.166,0,0,0,.427,1.592,1.149,1.149,0,0,0,.583.156,1.166,1.166,0,0,0,1.012-.583l1.32-2.29,1.322,2.29a1.166,1.166,0,0,0,1.012.583,1.149,1.149,0,0,0,.583-.156,1.166,1.166,0,0,0,.427-1.592l-1.324-2.29h2.644a1.166,1.166,0,1,0,0-2.331Z" transform="translate(0 0)"/><path class="a" d="M138.493,201.779h-2.644l1.322-2.29a1.166,1.166,0,0,0-2.019-1.166l-1.322,2.29-1.322-2.29a1.166,1.166,0,0,0-2.019,1.166l1.322,2.29h-2.644a1.166,1.166,0,0,0,0,2.332h2.644l-1.322,2.29a1.166,1.166,0,0,0,.427,1.592,1.149,1.149,0,0,0,.583.156,1.166,1.166,0,0,0,1.012-.583l1.32-2.29,1.322,2.29a1.166,1.166,0,0,0,1.012.583,1.149,1.149,0,0,0,.583-.156,1.166,1.166,0,0,0,.427-1.592l-1.324-2.29h2.644a1.166,1.166,0,1,0,0-2.331Z" transform="translate(-114.012)"/><path class="a" d="M266.493,201.779h-2.644l1.322-2.29a1.166,1.166,0,0,0-2.019-1.166l-1.322,2.29-1.322-2.29a1.166,1.166,0,0,0-2.019,1.166l1.322,2.29h-2.644a1.166,1.166,0,1,0,0,2.332h2.644l-1.322,2.29a1.166,1.166,0,0,0,.427,1.592,1.149,1.149,0,0,0,.583.156,1.166,1.166,0,0,0,1.012-.583l1.32-2.29,1.322,2.29a1.165,1.165,0,0,0,1.012.583,1.149,1.149,0,0,0,.583-.156,1.166,1.166,0,0,0,.427-1.592l-1.322-2.29h2.641a1.166,1.166,0,1,0,0-2.331Z" transform="translate(-228.023)"/><path class="a" d="M394.491,201.78h-2.644l1.322-2.29a1.166,1.166,0,0,0-2.019-1.166l-1.322,2.29-1.322-2.29a1.166,1.166,0,0,0-2.019,1.166l1.322,2.29h-2.644a1.166,1.166,0,1,0,0,2.332h2.644l-1.322,2.29a1.166,1.166,0,0,0,.427,1.592,1.149,1.149,0,0,0,.583.156,1.166,1.166,0,0,0,1.012-.583l1.32-2.29,1.322,2.29a1.166,1.166,0,0,0,1.012.583,1.149,1.149,0,0,0,.583-.156,1.166,1.166,0,0,0,.427-1.592l-1.322-2.29h2.642a1.166,1.166,0,0,0,0-2.332Z" transform="translate(-342.032 -0.002)"/></g></svg>