<svg xmlns="http://www.w3.org/2000/svg" xmlns:xlink="http://www.w3.org/1999/xlink" width="704.009" height="520.124" viewBox="0 0 704.009 520.124">
  <defs>
    <linearGradient id="linear-gradient" x1="0.5" y1="1" x2="0.5" gradientUnits="objectBoundingBox">
      <stop offset="0" stop-color="gray" stop-opacity="0.251"/>
      <stop offset="0.54" stop-color="gray" stop-opacity="0.122"/>
      <stop offset="1" stop-color="gray" stop-opacity="0.102"/>
    </linearGradient>
    <linearGradient id="linear-gradient-2" x1="0.5" y1="1" x2="0.5" y2="0" xlink:href="#linear-gradient"/>
  </defs>
  <g id="Groupe_10" data-name="Groupe 10" transform="translate(0.485)">
    <path id="Tracé_19" data-name="Tracé 19" d="M91.536,356.76h61.171v83.383h-56.7c-.145.862-.289,1.718-.452,2.58h57.15v67.235a.861.861,0,0,1-.283-.108q-2.411-.958-4.822-2.031c-.344-.157-.681-.32-1.031-.47q-2.411-1.139-4.822-2.411c-.561-.3-1.121-.6-1.67-.916A100.321,100.321,0,0,1,116.027,485.3c-.211-.2-.4-.416-.6-.6-.977-1.061-1.935-2.134-2.863-3.231-.35-.4-.687-.814-1.031-1.206-1.1-1.338-2.158-2.725-3.183-4.117-.157-.211-.3-.416-.452-.6a89.043,89.043,0,0,1-10.368-18.747c-.084-.2-.163-.416-.241-.6-.832-2.11-1.585-4.25-2.236-6.432-.277-.91-.549-1.808-.778-2.755-.084-.271-.151-.548-.223-.82-3.388-13.352-3.779-27.228-3.779-41.038v-4.822q.072-8.457.2-16.9.048-2.17.09-4.358.127-5.54.362-11.1c.036-1.025.084-2.055.139-3.074q.036-.886.09-1.772Q91.313,359.919,91.536,356.76Z" transform="translate(-45.766 -152.9)" fill="#6c63ff" opacity="0.1"/>
    <path id="Tracé_20" data-name="Tracé 20" d="M171.737,174.8H138.18a255.429,255.429,0,0,1,17.849-24.558c4.991-6.124,10.247-12.092,15.709-17.842Z" transform="translate(-64.797 -63.781)" fill="#6c63ff" opacity="0.1"/>
    <path id="Tracé_21" data-name="Tracé 21" d="M153.668,207v87.693H92.69c0-.253.036-.512.06-.766.054-.693.109-1.38.169-2.074.06-.808.139-1.615.217-2.411s.157-1.76.253-2.634.175-1.76.271-2.634.193-1.748.3-2.616.2-1.748.326-2.616c.09-.717.181-1.441.283-2.164.139-1.019.283-2.037.434-3.05a2.9,2.9,0,0,1,.072-.458,210.337,210.337,0,0,1,4.485-22.014,163,163,0,0,1,7.565-22.3A167.5,167.5,0,0,1,118.507,207Z" transform="translate(-46.728 -93.413)" fill="#6c63ff" opacity="0.03"/>
    <path id="Tracé_22" data-name="Tracé 22" d="M218.09,222.424v83.383H348.75V222.424Zm0,85.963V380c.747.151,1.483.3,2.224.428.995.193,2,.368,3.014.518l.6.084c.4.066.8.121,1.206.169,1.007.145,2.013.253,3.014.35.47.048.958.084,1.435.127l1.163.084h0c.633.048,1.26.084,1.887.108.386,0,.772.03,1.163.042s.6,0,.916,0h3.351c.518,0,1.037,0,1.549-.048h.03a9.224,9.224,0,0,0,1.079-.042,2.649,2.649,0,0,0,.307,0,7.257,7.257,0,0,0,.892-.036,1.269,1.269,0,0,1,.2,0c.669-.042,1.344-.1,2.025-.157s1.326-.133,2.007-.2l1.368-.169a120.035,120.035,0,0,0,16.546-3.52c12.194-3.4,24.111-8.156,36.3-11.634,15.745-4.491,33.153-6.7,48.368-1.236V308.387Zm130.66-178.8V18.573A167.894,167.894,0,0,0,306.3,23.546c-33.087,8.312-62.8,26.342-88.212,49.368v56.662h6.576v2.574H218.09v87.693H348.75V132.15H251.569v-2.58Zm167.864-37.5a54.09,54.09,0,0,1-23.69-6.884c-14.069-7.649-25.317-19.476-37.879-29.446-26.1-20.778-58.47-33.322-91.678-36.432V129.582H549.875l.464-.488Zm16.992-3.014,18.017,19.777V83.867c-6.064.766-11.344,2.544-18.017,5.178ZM551.624,397.78V308.387H513.2c-.1-.38-.205-.766-.326-1.151.115.386.217.772.319,1.151H363.368V373.03c1.423,1.055,2.827,2.17,4.219,3.291h0q2.254,1.845,4.479,3.731l1.495,1.236c.717.6,1.447,1.206,2.17,1.778q2.176,1.754,4.382,3.472,1.1.868,2.218,1.706a302.643,302.643,0,0,0,37.156,24.3c2.905,1.621,5.841,3.183,8.795,4.708q2.948,1.519,5.937,2.978,4.485,2.188,9.042,4.22h0a331.9,331.9,0,0,0,88.007,25.63q10.115,1.489,20.32,2.351V397.768h.6ZM363.368,132.15v87.693H551.624V132.15Zm0,90.261v83.4H551.624V222.424ZM566.235,83.747v27.909l22.99-25.239Q577.8,84.53,566.235,83.747Zm0,138.677v83.383h183.1V222.424ZM748.686,404.393l.645-96.006h-183.1V453.4a329.942,329.942,0,0,0,35.384-.428h.2q8.439-.543,16.8-1.543h.127a308.924,308.924,0,0,0,86.337-23.063m79.568-192.247q-1.043-2.411-2.14-4.822c-1.362-3.014-2.8-5.943-4.28-8.867H763.949v83.377h36.113c-.03-23.617-6.01-47.729-15.407-69.688Zm-20.706,72.268v82.582a118.173,118.173,0,0,0,24.955-33.66c7.444-15.365,10.85-31.99,11.133-48.928Zm0-110.262v21.7H776.9a235.718,235.718,0,0,0-12.948-21.7ZM639.775,100.112c-.952-.368-1.911-.735-2.869-1.085a260.5,260.5,0,0,0-30.923-9.295l-35.191,38.614h0l-.687.741.452.488H695.8a267.577,267.577,0,0,0-56.029-29.464Zm59.706,32.038H568.8l-2.568,2.345v85.348h183.1V178.492a260.7,260.7,0,0,0-49.85-46.342Z" transform="translate(-96.538 -18.563)" fill="#6c63ff" opacity="0.01"/>
    <path id="Tracé_23" data-name="Tracé 23" d="M153.668,280.39v43.455H92.69c0-.253.036-.512.06-.766.054-.693.109-1.38.169-2.074.06-.808.139-1.615.217-2.411s.157-1.76.253-2.634.175-1.76.271-2.634.193-1.748.3-2.616.2-1.748.326-2.616c.09-.717.181-1.441.283-2.164.139-1.019.283-2.037.434-3.05a2.9,2.9,0,0,1,.072-.458,210.331,210.331,0,0,1,4.485-22.014Z" transform="translate(-46.728 -122.564)" fill="#6c63ff" opacity="0.03"/>
    <path id="Tracé_24" data-name="Tracé 24" d="M91.536,356.76h61.171v83.383h-56.7c-.145.862-.289,1.718-.452,2.58h57.15v67.235a.861.861,0,0,1-.283-.108q-2.411-.958-4.822-2.031c-.344-.157-.681-.32-1.031-.47q-2.411-1.139-4.822-2.411c-.561-.3-1.121-.6-1.67-.916A100.321,100.321,0,0,1,116.027,485.3c-.211-.2-.4-.416-.6-.6-.977-1.061-1.935-2.134-2.863-3.231-.35-.4-.687-.814-1.031-1.206-1.1-1.338-2.158-2.725-3.183-4.117-.157-.211-.3-.416-.452-.6a89.043,89.043,0,0,1-10.368-18.747c-.084-.2-.163-.416-.241-.6-.832-2.11-1.585-4.25-2.236-6.432-.277-.91-.549-1.808-.778-2.755-.084-.271-.151-.548-.223-.82-3.388-13.352-3.779-27.228-3.779-41.038v-4.822q.072-8.457.2-16.9.048-2.17.09-4.358.127-5.54.362-11.1c.036-1.025.084-2.055.139-3.074q.036-.886.09-1.772Q91.313,359.919,91.536,356.76Z" transform="translate(-45.766 -152.9)" fill="#6c63ff" opacity="0.03"/>
    <path id="Tracé_25" data-name="Tracé 25" d="M248.129,192.518v75.131h-46V192.518h6.558V167.08h26.92v25.438Z" transform="translate(-80.584 -66.368)" fill="#6c63ff" opacity="0.1"/>
    <rect id="Rectangle_14" data-name="Rectangle 14" width="45.993" height="83.383" transform="translate(121.546 203.854)" fill="#6c63ff" opacity="0.1"/>
    <path id="Tracé_26" data-name="Tracé 26" d="M218.09,499.37h45.993v69.32a119.126,119.126,0,0,1-16.547,3.514c-.458.066-.91.121-1.368.169-.675.078-1.344.151-2.013.211l-2.019.163h-.2l-.892.048h-.307c-.362,0-.717.042-1.079.048h-.03c-.518,0-1.031.036-1.549.048H233.8a9.487,9.487,0,0,1-1.169-.048q-.928-.036-1.881-.109h0l-1.163-.084c-.482-.036-.964-.084-1.441-.133q-1.519-.133-3.014-.344l-1.206-.169-.6-.084c-1.007-.151-2.007-.319-3.014-.512-.747-.133-1.483-.283-2.224-.44Z" transform="translate(-96.538 -209.546)" fill="#6c63ff" opacity="0.1"/>
    <rect id="Rectangle_15" data-name="Rectangle 15" width="37.927" height="83.998" transform="translate(417.152 117.276)" fill="#6c63ff" opacity="0.1"/>
    <path id="Tracé_27" data-name="Tracé 27" d="M631.406,338.19v83.389H443.15V385.611H543.423v21.218h50.049V338.19Z" transform="translate(-176.321 -134.336)" fill="#6c63ff" opacity="0.1"/>
    <path id="Tracé_28" data-name="Tracé 28" d="M647.953,588.023a3.412,3.412,0,0,1-.6-.036v54.7q-10.193-.838-20.314-2.345a332.334,332.334,0,0,1-88.043-25.618q-12.134-5.473-23.774-11.929a303.749,303.749,0,0,1-37.15-24.3q-4.449-3.4-8.765-6.95c-2-1.652-3.972-3.339-5.986-4.973-1.386-1.127-2.791-2.242-4.219-3.3V498.611H608.929c-.109-.386-.205-.766-.314-1.151.115.386.223.766.32,1.151h38.422V587.98C647.555,587.987,647.754,588,647.953,588.023Z" transform="translate(-192.271 -208.788)" fill="#6c63ff" opacity="0.1"/>
    <path id="Tracé_29" data-name="Tracé 29" d="M919.224,182.605H894.51v-7.68h11.073V152.05q1.44.531,2.869,1.085v21.791h10.766Z" transform="translate(-365.222 -71.586)" fill="#6c63ff" opacity="0.1"/>
    <path id="Tracé_30" data-name="Tracé 30" d="M939.5,294.693H818.164a.078.078,0,0,0,.036,0H795.65v-84h6.378v62.087h29.139v-36.77h24.081V207h24.714v29.03h24.069V272.8h35.48Z" transform="translate(-325.953 -93.413)" fill="#6c63ff" opacity="0.1"/>
    <path id="Tracé_31" data-name="Tracé 31" d="M795.65,356.76v83.383H939.511V356.76ZM978.541,538.289l.2-66.005H939.511V442.747H795.65V587.736a329.926,329.926,0,0,0,35.384-.428h.2q8.439-.543,16.8-1.543h.127A308.927,308.927,0,0,0,934.5,562.7" transform="translate(-325.953 -152.9)" fill="#6c63ff" opacity="0.1"/>
    <path id="Tracé_32" data-name="Tracé 32" d="M1126.182,499.37h33.557c-.29,16.932-3.689,33.563-11.134,48.922a118.113,118.113,0,0,1-24.955,33.666V528.913h2.532Z" transform="translate(-456.239 -209.546)" fill="#6c63ff" opacity="0.1"/>
    <path id="Tracé_33" data-name="Tracé 33" d="M1161.431,449.168H1127.85V379.48h18.174C1155.422,401.44,1161.4,425.551,1161.431,449.168Z" transform="translate(-457.908 -161.924)" fill="#6c63ff" opacity="0.1"/>
    <rect id="Rectangle_16" data-name="Rectangle 16" width="20.32" height="26.336" transform="translate(434.765 140.628)" fill="#6c63ff" opacity="0.1"/>
    <rect id="Rectangle_17" data-name="Rectangle 17" width="20.32" height="6.064" transform="translate(434.765 195.216)" fill="#6c63ff" opacity="0.1"/>
    <rect id="Rectangle_18" data-name="Rectangle 18" width="20.32" height="17.692" transform="translate(434.765 203.854)" fill="#6c63ff" opacity="0.1"/>
    <rect id="Rectangle_19" data-name="Rectangle 19" width="20.32" height="26.336" transform="translate(434.765 249.805)" fill="#6c63ff" opacity="0.1"/>
    <rect id="Rectangle_20" data-name="Rectangle 20" width="20.32" height="26.336" transform="translate(434.765 304.393)" fill="#6c63ff" opacity="0.1"/>
    <path id="Tracé_34" data-name="Tracé 34" d="M758.02,634.312a2.939,2.939,0,0,1,.6.042,3.416,3.416,0,0,1-.6-.036v6.118H737.7V614.1h20.32Z" transform="translate(-302.935 -255.119)" fill="#6c63ff" opacity="0.1"/>
    <path id="Tracé_35" data-name="Tracé 35" d="M758.02,704.65v20.338q-10.2-.838-20.32-2.345V704.65Z" transform="translate(-302.935 -291.087)" fill="#6c63ff" opacity="0.1"/>
    <rect id="Rectangle_21" data-name="Rectangle 21" width="87.084" height="1.935" transform="translate(266.829 285.309)" fill="#6c63ff" opacity="0.1"/>
    <rect id="Rectangle_22" data-name="Rectangle 22" width="87.084" height="7.414" transform="translate(266.829 289.818)" fill="#6c63ff" opacity="0.1"/>
    <rect id="Rectangle_23" data-name="Rectangle 23" width="87.084" height="11.923" transform="translate(266.829 321.536)" fill="#6c63ff" opacity="0.1"/>
    <path id="Tracé_36" data-name="Tracé 36" d="M548.965,612.08V624H480.85q-4.449-3.388-8.765-6.956c-2-1.646-3.978-3.333-5.986-4.967Z" transform="translate(-195.051 -254.316)" fill="#6c63ff" opacity="0.1"/>
    <path id="Tracé_37" data-name="Tracé 37" d="M583.165,672.17v11.953h-7.191Q563.84,678.65,552.2,672.194Z" transform="translate(-229.251 -278.185)" fill="#6c63ff" opacity="0.1"/>
    <rect id="Rectangle_24" data-name="Rectangle 24" width="17.143" height="17.143" transform="translate(505.08 211.938)" fill="#6c63ff" opacity="0.1"/>
    <rect id="Rectangle_25" data-name="Rectangle 25" width="17.143" height="17.143" transform="translate(133.897 132.063)" fill="#6c63ff" opacity="0.1"/>
    <rect id="Rectangle_26" data-name="Rectangle 26" width="17.143" height="17.143" transform="translate(133.897 171.883)" fill="#6c63ff" opacity="0.1"/>
    <rect id="Rectangle_27" data-name="Rectangle 27" width="17.143" height="17.143" transform="translate(133.897 211.703)" fill="#6c63ff" opacity="0.1"/>
    <rect id="Rectangle_28" data-name="Rectangle 28" width="17.143" height="17.143" transform="translate(133.897 251.517)" fill="#6c63ff" opacity="0.1"/>
    <rect id="Rectangle_29" data-name="Rectangle 29" width="17.143" height="17.143" transform="translate(133.897 291.337)" fill="#6c63ff" opacity="0.1"/>
    <rect id="Rectangle_30" data-name="Rectangle 30" width="17.143" height="17.143" transform="translate(133.897 331.157)" fill="#6c63ff" opacity="0.1"/>
    <rect id="Rectangle_31" data-name="Rectangle 31" width="17.143" height="17.143" transform="translate(570.525 211.938)" fill="#6c63ff" opacity="0.1"/>
    <rect id="Rectangle_32" data-name="Rectangle 32" width="17.143" height="17.143" transform="translate(505.08 254.223)" fill="#6c63ff" opacity="0.1"/>
    <rect id="Rectangle_33" data-name="Rectangle 33" width="17.143" height="17.143" transform="translate(570.525 254.223)" fill="#6c63ff" opacity="0.1"/>
    <rect id="Rectangle_34" data-name="Rectangle 34" width="17.143" height="17.143" transform="translate(505.08 296.503)" fill="#6c63ff" opacity="0.1"/>
    <rect id="Rectangle_35" data-name="Rectangle 35" width="17.143" height="17.143" transform="translate(570.525 296.503)" fill="#6c63ff" opacity="0.1"/>
    <rect id="Rectangle_36" data-name="Rectangle 36" width="17.143" height="17.143" transform="translate(505.08 338.788)" fill="#6c63ff" opacity="0.1"/>
    <rect id="Rectangle_37" data-name="Rectangle 37" width="17.143" height="17.143" transform="translate(570.525 338.788)" fill="#6c63ff" opacity="0.1"/>
    <rect id="Rectangle_38" data-name="Rectangle 38" width="17.143" height="17.143" transform="translate(505.08 381.073)" fill="#6c63ff" opacity="0.1"/>
    <rect id="Rectangle_39" data-name="Rectangle 39" width="17.143" height="17.143" transform="translate(570.525 381.073)" fill="#6c63ff" opacity="0.1"/>
    <path id="Tracé_38" data-name="Tracé 38" d="M838.4,713.385V702.33h17.137v9.482Z" transform="translate(-333.32 -278.977)" fill="#6c63ff" opacity="0.1"/>
    <path id="Tracé_39" data-name="Tracé 39" d="M96.53,316.91v9.807h58.663V316.91Zm5.841,9.193H97.549v-8.572h4.822Zm5.841,0H103.39v-8.572h4.822Zm5.829,0h-4.822v-8.572h4.822Zm5.841,0H115.06v-8.572h4.822Zm5.835,0h-4.822v-8.572h4.822Zm5.841,0h-4.822v-8.572h4.822Zm5.841,0h-4.822v-8.572H137.4Zm5.835,0h-4.822v-8.572h4.822Zm5.835,0h-4.822v-8.572h4.822Zm5.841,0h-4.822v-8.572h4.822Z" transform="translate(-48.253 -137.071)" fill="#6c63ff" opacity="0.1"/>
    <path id="Tracé_40" data-name="Tracé 40" d="M96.53,364.27v9.807h58.663V364.27Zm5.841,9.193H97.549v-8.572h4.822Zm5.841,0H103.39v-8.572h4.822Zm5.829,0h-4.822v-8.572h4.822Zm5.841,0H115.06v-8.572h4.822Zm5.835,0h-4.822v-8.572h4.822Zm5.841,0h-4.822v-8.572h4.822Zm5.841,0h-4.822v-8.572H137.4Zm5.835,0h-4.822v-8.572h4.822Zm5.835,0h-4.822v-8.572h4.822Zm5.841,0h-4.822v-8.572h4.822Z" transform="translate(-48.253 -155.883)" fill="#6c63ff" opacity="0.1"/>
    <path id="Tracé_41" data-name="Tracé 41" d="M96.53,411.64v9.8h58.663v-9.8Zm5.841,9.18H97.549v-8.572h4.822Zm5.841,0H103.39v-8.572h4.822Zm5.829,0h-4.822v-8.572h4.822Zm5.841,0H115.06v-8.572h4.822Zm5.835,0h-4.822v-8.572h4.822Zm5.841,0h-4.822v-8.572h4.822Zm5.841,0h-4.822v-8.572H137.4Zm5.835,0h-4.822v-8.572h4.822Zm5.835,0h-4.822v-8.572h4.822Zm5.841,0h-4.822v-8.572h4.822Z" transform="translate(-48.253 -174.699)" fill="#6c63ff" opacity="0.1"/>
    <path id="Tracé_42" data-name="Tracé 42" d="M96.53,459v9.8h58.663V459Zm5.841,9.186H97.549V459.6h4.822Zm5.841,0H103.39V459.6h4.822Zm5.829,0h-4.822V459.6h4.822Zm5.841,0H115.06V459.6h4.822Zm5.835,0h-4.822V459.6h4.822Zm5.841,0h-4.822V459.6h4.822Zm5.841,0h-4.822V459.6H137.4Zm5.835,0h-4.822V459.6h4.822Zm5.835,0h-4.822V459.6h4.822Zm5.841,0h-4.822V459.6h4.822Z" transform="translate(-48.253 -193.511)" fill="#6c63ff" opacity="0.1"/>
    <path id="Tracé_43" data-name="Tracé 43" d="M97,506.34c.229.928.5,1.845.778,2.755v-2.134H102.6v8.566h-2.586c.072.2.151.416.235.6H155.4V506.34Zm11.453,9.187h-4.822v-8.566h4.822Zm5.829,0H109.46v-8.566h4.822Zm5.841,0H115.3v-8.566h4.822Zm5.835,0h-4.822v-8.566h4.822Zm5.841,0h-4.822v-8.566H131.8Zm5.841,0h-4.822v-8.566h4.822Zm5.835,0h-4.822v-8.566h4.822Zm5.835,0h-4.822v-8.566h4.822Zm5.841,0h-4.822v-8.566h4.822Z" transform="translate(-48.44 -212.315)" fill="#6c63ff" opacity="0.1"/>
    <path id="Tracé_44" data-name="Tracé 44" d="M119.54,553.7c.157.193.3.41.452.6h3.189v4.117l1.031,1.206v-5.347h4.822v8.644h-1.983c.193.2.38.41.6.6h36.667V553.7Zm15.347,9.223h-4.822v-8.608h4.822Zm5.841,0h-4.822v-8.608h4.822Zm5.841,0h-4.822v-8.608h4.822Zm5.835,0h-4.822v-8.608H152.4Zm5.835,0h-4.822v-8.608h4.822Zm5.841,0h-4.822v-8.608h4.822Z" transform="translate(-57.393 -231.127)" fill="#6c63ff" opacity="0.1"/>
    <path id="Tracé_45" data-name="Tracé 45" d="M172.93,601.06c.555.314,1.115.6,1.676.91v-.3h4.822v2.719c.35.151.681.313,1.025.47v-3.189h4.822v5.22a1.949,1.949,0,0,0,.283.1V601.06Z" transform="translate(-78.6 -249.939)" fill="#6c63ff" opacity="0.1"/>
    <path id="Tracé_46" data-name="Tracé 46" d="M593.083,292.993ZM555.951,470.906Zm-38.741-90.52c.114.386.217.772.319,1.151h0C517.439,381.157,517.331,380.771,517.21,380.385Zm75.873-87.392ZM229,202.732V205.3h26.926v-2.58ZM555.957,470.906Zm-38.747-90.52c.114.386.217.772.319,1.151h0C517.439,381.157,517.331,380.771,517.21,380.385Zm75.873-87.392ZM555.951,470.906Zm-38.741-90.52c.114.386.217.772.319,1.151h0C517.439,381.157,517.331,380.771,517.21,380.385Z" transform="translate(-100.872 -91.713)" fill="#6c63ff" opacity="0.1"/>
    <ellipse id="Ellipse_18" data-name="Ellipse 18" cx="58.735" cy="9.434" rx="58.735" ry="9.434" transform="translate(471.077 501.257)" fill="#6c63ff" opacity="0.1"/>
    <ellipse id="Ellipse_19" data-name="Ellipse 19" cx="58.735" cy="9.434" rx="58.735" ry="9.434" transform="translate(206.177 491.823)" fill="#6c63ff" opacity="0.1"/>
    <path id="Tracé_47" data-name="Tracé 47" d="M499.084,372.8a.32.32,0,0,0-.09-.157c-.9-.886-12.351-17.083-12.351-17.083s-.6-1.808-1.579-4.159a4.134,4.134,0,0,0,.693-1.356,4.67,4.67,0,0,0,.115-.633c0-.066.048-.121.066-.187a4.575,4.575,0,0,0-.06-2.484,4.3,4.3,0,0,1-.247.6,10.077,10.077,0,0,0-.9-2.013c-1.519-2.616-3.689-4.822-5.286-7.372a19.946,19.946,0,0,1-2.719-13.237c0,.235,0,.476,0,.711a20.648,20.648,0,0,1,.362-2.713,18.812,18.812,0,0,1,1.007-2.978c1.435-3.285,3.755-6.148,5.166-9.446a17.9,17.9,0,0,0,1.073-3.454,19.35,19.35,0,0,0,.536-6.058,9.652,9.652,0,0,1-.151,1.441,19.62,19.62,0,0,0-5.54-13.062c-4.925-4.949-12-6.872-18.759-7.884a17.185,17.185,0,0,1-7.9-3.014,13.728,13.728,0,0,0-8.994-1.718,14.835,14.835,0,0,0-9.156,4.527c-3.213,3.532-4.605,8.535-8.355,11.513-2.272,1.808-5.154,2.652-7.8,3.882s-5.148,3.014-6,5.654v.1l-.036.1c-.88,3.122.82,6.3,1.706,9.415a38.15,38.15,0,0,1,1.031,9.964c.066,4.075.127,8.156.06,12.237-.03,1.6-.084,3.225-.2,4.822a25.264,25.264,0,0,0-4.141,1.664c-1.35.88-6.4,6.335-6.4,6.335L394.35,384.5l.133.151-.133.512.5-.115a50.862,50.862,0,0,0,10.085,8.475l.422,7.4s.506,7.426,7.336,10.495c.157,2.574.645,13.026-1.615,17.167a19.29,19.29,0,0,0-2.134,9.813s.79,6.281-.108,9.584a15.672,15.672,0,0,0-.115,6.727h0V456.7c0,6.685.078,28.108,0,30.531-.115,2.863,0,45.209,0,45.209s-.561,21.164-2.357,26.9-1.344,24.714-1.344,24.714-1.127,22.61,2.857,27.071c0,.2-.036.4-.042.6V612c-.048,1.718.283,3.544,1.76,4.105a25.223,25.223,0,0,1,7.752,5.624c.754.995,5.136,3.472,10.85,2.809a81.714,81.714,0,0,1,10.784-.494h0s2.254-.41,1.525-3.213h0a25.1,25.1,0,0,0-3.484-6.2c.229.06.452.109.663.151l.217.042h.169a2.261,2.261,0,0,0,.277,0h.12a2.071,2.071,0,0,0,.338,0h0c1.513-.145,7.155,2.484,8.162,4.22s4.557,3.056,7.233,3.388a51.4,51.4,0,0,0,8.975-.567,33.052,33.052,0,0,0,5.027-.916c.8-.3.964-1.266.735-2.351h0a6.118,6.118,0,0,0-2.086-3.52,16.929,16.929,0,0,1-3.219-4.015l-.253-.4c1.682-1.6,4.72-6.848,5.642-7.933,1.121-1.32-1.808-49.6-1.808-49.6v-24.2l4.491-22.906,3.14-12.122,2.694-18.3s4.714-21.375,3.261-23.473h0c0-.042-1.206-22.05-2.471-27.336-.549-2.357-.41-7.661-.084-12.821a2.532,2.532,0,0,0,.6-2.64,5.487,5.487,0,0,0-.35-.9v-.277a41.51,41.51,0,0,1,8.12-2.761c4.491-.88,3.37-3.195,3.37-3.195S491,400.215,491.67,399s.115-11.905,0-12.785c-.042-.356-.32-2.321-.639-4.551,1.441-1.025,3.315-2.3,5.359-3.5C500.278,375.862,499.4,373.433,499.084,372.8ZM440.493,525.625s-3.37,8.6-2.019,10.8-.223,10.368-.223,10.368l-1.127,12.122s-3.141,22.484-2.019,27.77c.88,4.147,1.206,16.534,1.308,21.7h0a1.514,1.514,0,0,0-.223.108l-.151.078c.518-2.031.3-6.142-2.272-14.413L433.549,560s-.4-39.458,2.719-43.871,4.22-11.9,4.22-11.9-.675,10.808-1.115,13.671S440.493,525.625,440.493,525.625Zm-6.275,84.908c-.03.072-.066.145-.09.211l-.169-.217a1.774,1.774,0,0,0,.259.006Z" transform="translate(-166.551 -120.988)" fill="url(#linear-gradient)"/>
    <path id="Tracé_48" data-name="Tracé 48" d="M495.139,844.4c-1.742.669-11.188,1.808-13.828,1.489s-6.136-1.658-7.131-3.406-6.57-4.388-8.065-4.219a5.426,5.426,0,0,1-1.808-.253,22.254,22.254,0,0,1-3.014-1.157,5.6,5.6,0,0,1,.066-2.291,3.666,3.666,0,0,1,.133-.446,3.984,3.984,0,0,1,2.025-2.255l.217-.1a6.141,6.141,0,0,1,1.3-.4c4.738-.91,24.286.916,24.286.916s.548.982,1.3,2.2a16.824,16.824,0,0,0,3.183,4.039,6.178,6.178,0,0,1,2.055,3.544C496.091,843.129,495.922,844.106,495.139,844.4Z" transform="translate(-193.107 -341.318)" fill="#fff"/>
    <path id="Tracé_49" data-name="Tracé 49" d="M495.144,845.514c-1.742.669-11.182,1.808-13.822,1.489s-6.136-1.664-7.137-3.406-6.564-4.388-8.059-4.219-4.822-1.411-4.822-1.411a5,5,0,0,1,.989-4.057l3.014,2.14s8.065,2.5,9.56,4.822,4.219,3.617,8.156,3.852c2.942.193,9.7-.953,12.864-1.525C496.1,844.242,495.933,845.218,495.144,845.514Z" transform="translate(-193.112 -342.43)" opacity="0.1"/>
    <path id="Tracé_50" data-name="Tracé 50" d="M449.347,847.619a80.24,80.24,0,0,0-10.645.5c-5.66.663-9.982-1.808-10.736-2.827a25.152,25.152,0,0,0-7.649-5.666c-1.465-.567-1.808-2.411-1.742-4.135v-.283a16.877,16.877,0,0,1,.482-3.237l23.454-.5,2.031,2.755.313.422,1.236,1.682s.561.735,1.3,1.808c1.242,1.808,2.978,4.479,3.442,6.245h0C451.571,847.209,449.347,847.619,449.347,847.619Z" transform="translate(-176.171 -341.461)" fill="#fff"/>
    <path id="Tracé_51" data-name="Tracé 51" d="M449.347,850.276a80.261,80.261,0,0,0-10.645.5c-5.654.663-9.982-1.808-10.73-2.827a24.444,24.444,0,0,0-7.655-5.654c-1.465-.567-1.808-2.411-1.742-4.135,1.676.392,5.2,1.393,6.576,3.135,1.808,2.327,5.045,6.239,9.645,6.486,3.713.2,12.755-.464,16.07-.729C451.577,849.866,449.347,850.276,449.347,850.276Z" transform="translate(-176.171 -344.119)" opacity="0.1"/>
    <path id="Tracé_52" data-name="Tracé 52" d="M446.542,831.974c-.271,2.013-1.109,2.556-1.712,2.677a1.169,1.169,0,0,1-.446,0,1.505,1.505,0,0,1-.235-.036s-21.061,4.653-25.317.886a2.954,2.954,0,0,1-.3-.313,16.887,16.887,0,0,1,.482-3.237l23.454-.5L444.5,834.2a3.984,3.984,0,0,1,2.025-2.254Z" transform="translate(-176.156 -341.453)" opacity="0.1"/>
    <path id="Tracé_53" data-name="Tracé 53" d="M492.268,834.419c-.47.518-.862.814-1.109.711-1.109-.446-10.2-2-13.086-.663s-12.659.217-12.659.217,0-1.157-.054-3.014a6.131,6.131,0,0,1,1.3-.4c4.738-.91,24.286.916,24.286.916S491.521,833.2,492.268,834.419Z" transform="translate(-194.757 -341.282)" opacity="0.1"/>
    <path id="Tracé_54" data-name="Tracé 54" d="M485.517,589.988,482.852,608.4l-3.1,12.2-4.436,23.063v24.413s2.881,48.573,1.772,49.9-5.323,8.879-6.432,8.439-10.2-2-13.087-.669-12.658.223-12.658.223-.223-18.849-1.332-24.172,2-27.945,2-27.945l1.109-12.194s1.555-8.21.223-10.428,2-10.85,2-10.85-1.549-4.889-1.1-7.77,1.1-13.75,1.1-13.75-1.1,7.547-4.183,11.977-2.688,44.136-2.688,44.136l.217,34.359c5.552,18.192,0,16.414,0,16.414s-21.061,4.659-25.317.886-3.038-27.523-3.038-27.523-.44-19.072,1.332-24.835,2.333-27.059,2.333-27.059-.115-42.587,0-45.462c.084-2.411,0-24,0-30.742v-2l2.544-6.317,30.139-3.773H464.66s21.7,5.1,23.943,7.3a.5.5,0,0,1,.121.133C490.176,568.48,485.517,589.988,485.517,589.988Z" transform="translate(-174.25 -233.2)" fill="#28bfcb"/>
    <path id="Tracé_55" data-name="Tracé 55" d="M472.11,770.88s6.631,15.968,9.759,17.077S472.11,770.88,472.11,770.88Z" transform="translate(-197.439 -317.394)" opacity="0.1"/>
    <path id="Tracé_56" data-name="Tracé 56" d="M476.18,809.88s22.387,1.109,22.164,3.55S476.18,809.88,476.18,809.88Z" transform="translate(-199.055 -332.885)" opacity="0.1"/>
    <path id="Tracé_57" data-name="Tracé 57" d="M426.49,799.29c.886.838,17.077,2.411,15.745,3.942s-14.413,4.509-14.413,4.509Z" transform="translate(-179.318 -328.679)" opacity="0.1"/>
    <path id="Tracé_58" data-name="Tracé 58" d="M422.08,753.59c0,.663,3.327,21.29,4.22,22.176s8.2,1.772,8.2,1.772Z" transform="translate(-177.566 -310.526)" opacity="0.1"/>
    <path id="Tracé_59" data-name="Tracé 59" d="M446.829,282.755c-3.177,3.55-4.551,8.584-8.252,11.586-2.248,1.808-5.094,2.67-7.71,3.9s-5.208,3.1-5.986,5.889c-.868,3.134.808,6.335,1.688,9.47a39.2,39.2,0,0,1,1.019,10.024c.06,4.1.127,8.21.054,12.315-.108,6.4-.639,13.087-4.033,18.506,12.255,3.9,25.287,4.43,38.138,4.931a38.482,38.482,0,0,0,7.408-.187,63.572,63.572,0,0,0,6.311-1.6,48.394,48.394,0,0,1,12.574-1.609,21.112,21.112,0,0,0,5.522-.368,5.448,5.448,0,0,0,3.984-3.5,6.506,6.506,0,0,0-1.019-4.75c-1.495-2.628-3.617-4.822-5.22-7.414A20.374,20.374,0,0,1,490,321.629c1.423-3.309,3.713-6.191,5.112-9.506a20.049,20.049,0,0,0-4.039-21.266c-4.865-4.979-11.845-6.908-18.524-7.933a16.824,16.824,0,0,1-7.8-3.014,13.351,13.351,0,0,0-8.885-1.724A14.5,14.5,0,0,0,446.829,282.755Z" transform="translate(-178.174 -121.638)" fill="#3f3d56"/>
    <g id="Groupe_7" data-name="Groupe 7" transform="translate(245.678 180.924)" opacity="0.1">
      <path id="Tracé_60" data-name="Tracé 60" d="M533.015,334.3a20.054,20.054,0,0,0-1.537,9.2,19.709,19.709,0,0,1,1.537-6.534c1.417-3.309,3.707-6.191,5.106-9.506a19.234,19.234,0,0,0,1.4-8.752,18.743,18.743,0,0,1-1.4,6.088C536.723,328.113,534.432,330.989,533.015,334.3Z" transform="translate(-466.679 -318.71)"/>
      <path id="Tracé_61" data-name="Tracé 61" d="M428.574,339.821c.036,2.363.072,4.732.078,7.095q0-4.883-.078-9.753a39.118,39.118,0,0,0-1.019-10.03,49.663,49.663,0,0,1-1.808-6.233c-.536,2.954.989,5.949,1.808,8.9A38.94,38.94,0,0,1,428.574,339.821Z" transform="translate(-424.655 -319.58)"/>
      <path id="Tracé_62" data-name="Tracé 62" d="M493.927,398.784a20.384,20.384,0,0,1-5.516.368,48.357,48.357,0,0,0-12.568,1.579,64,64,0,0,1-6.311,1.591,38.082,38.082,0,0,1-7.414.193c-12.417-.488-25.01-1.013-36.9-4.563a20.458,20.458,0,0,1-1.206,2.291c12.255,3.894,25.287,4.43,38.132,4.931a38.086,38.086,0,0,0,7.414-.193,62.349,62.349,0,0,0,6.287-1.585,48.357,48.357,0,0,1,12.544-1.6,20.81,20.81,0,0,0,5.515-.374,5.452,5.452,0,0,0,3.984-3.5,4.786,4.786,0,0,0-.06-2.508A5.627,5.627,0,0,1,493.927,398.784Z" transform="translate(-424.01 -349.18)"/>
    </g>
    <path id="Tracé_63" data-name="Tracé 63" d="M483.194,365.778c-.446,1-2.327,9.645-2.773,10.531s-2.881,15.07-3.1,15.865-16.052-3.327-16.052-3.327l-9.53-7.987-9.8-9.747s-.289-8.795,6.926-11.616a11.016,11.016,0,0,1,1.507-.47c8.753-2.1,7.872-28.717,7.872-28.717l17.963,7.758s-3.327,15.528-3.213,18.524c.03,1.007.82,1.634,1.851,2.013a14.632,14.632,0,0,0,4.907.53S483.64,364.783,483.194,365.778Z" transform="translate(-185.454 -142.393)" fill="#fbbebe"/>
    <path id="Tracé_64" data-name="Tracé 64" d="M548.092,436.656l2.55.669s1.887,2.869-2.55,5.54a76.87,76.87,0,0,0-8.1,5.66l-13.111,3.99-2.526-7.927,12.2-9.259Z" transform="translate(-218.193 -184.109)" fill="#6c63ff"/>
    <path id="Tracé_65" data-name="Tracé 65" d="M548.092,436.656l2.55.669s1.887,2.869-2.55,5.54a76.87,76.87,0,0,0-8.1,5.66l-13.111,3.99-2.526-7.927,12.2-9.259Z" transform="translate(-218.193 -184.109)" opacity="0.1"/>
    <path id="Tracé_66" data-name="Tracé 66" d="M401.64,449.281l-5.1,4.991s9.2,10.645,16.275,11.308,11.64-8.1,11.64-8.1l-6.124-9.645Z" transform="translate(-167.421 -189.078)" fill="#6c63ff"/>
    <path id="Tracé_67" data-name="Tracé 67" d="M401.64,449.281l-5.1,4.991s9.2,10.645,16.275,11.308,11.64-8.1,11.64-8.1l-6.124-9.645Z" transform="translate(-167.421 -189.078)" opacity="0.1"/>
    <ellipse id="Ellipse_20" data-name="Ellipse 20" cx="17.74" cy="17.74" rx="17.74" ry="17.74" transform="translate(264.918 169.827)" opacity="0.1"/>
    <ellipse id="Ellipse_21" data-name="Ellipse 21" cx="17.74" cy="17.74" rx="17.74" ry="17.74" transform="translate(264.918 168.495)" fill="#fbbebe"/>
    <path id="Tracé_68" data-name="Tracé 68" d="M491.253,568.378a57.269,57.269,0,0,0-11.869,2.658c-6.631,2.206-58.591.036-59.314,0v-2l2.544-6.317,30.139-3.773h14.419s21.7,5.1,23.943,7.3C491.2,567.576,491.253,568.378,491.253,568.378Z" transform="translate(-176.768 -233.212)" opacity="0.1"/>
    <path id="Tracé_69" data-name="Tracé 69" d="M483.194,384.423c-.446,1-2.327,9.645-2.773,10.531s-2.881,15.07-3.1,15.865-16.052-3.327-16.052-3.327l-9.53-7.987-9.8-9.747s-.289-8.795,6.926-11.616l17.915,20.6,8.065-21.489a14.63,14.63,0,0,0,4.907.53S483.64,383.429,483.194,384.423Z" transform="translate(-185.454 -161.039)" opacity="0.1"/>
    <path id="Tracé_70" data-name="Tracé 70" d="M455.162,398.795l-18.337-21.1a7.685,7.685,0,0,0-7.276-.536c-4.1,1.778-9.2,3.219-10.537,4.105s-6.323,6.371-6.323,6.371l14.865,38.886-6.546,25.612s1,13.087-1.549,17.855a19.6,19.6,0,0,0-2.11,9.868s.778,6.323-.108,9.645a16.063,16.063,0,0,0-.115,6.763s52.677,2.218,59.326,0a56.774,56.774,0,0,1,11.869-2.658s-1.206-22.183-2.411-27.505,1-25.612,1-25.612l-1.441-21.736,8.644-22.3s-4.684-14.3-9.566-15.739c0,0-8.867-2.11-10.754-3.1s-7.432-1.887-7.432-1.887l-2.912.977Z" transform="translate(-173.836 -160.431)" fill="#fff"/>
    <rect id="Rectangle_40" data-name="Rectangle 40" width="42.219" height="64.607" rx="2.94" transform="translate(266.557 254.845) rotate(3.89)" opacity="0.1"/>
    <rect id="Rectangle_41" data-name="Rectangle 41" width="42.219" height="64.607" rx="2.94" transform="translate(267.886 253.522) rotate(3.89)" fill="#3f3d56"/>
    <rect id="Rectangle_42" data-name="Rectangle 42" width="36.782" height="55.589" transform="translate(270.269 258.546) rotate(3.89)" fill="#fff"/>
    <rect id="Rectangle_43" data-name="Rectangle 43" width="30.05" height="8.375" transform="translate(273.698 273.098) rotate(4.004)" opacity="0.1"/>
    <rect id="Rectangle_44" data-name="Rectangle 44" width="4.768" height="4.364" transform="translate(297.835 308.075) rotate(3.89)" opacity="0.1"/>
    <rect id="Rectangle_45" data-name="Rectangle 45" width="24.407" height="4.364" transform="translate(273.549 296.234) rotate(3.89)" opacity="0.1"/>
    <rect id="Rectangle_46" data-name="Rectangle 46" width="25.413" height="6.709" transform="translate(277.07 257.243) rotate(3.89)" fill="#3f3d56"/>
    <rect id="Rectangle_47" data-name="Rectangle 47" width="25.413" height="6.709" transform="translate(277.07 257.243) rotate(3.89)" opacity="0.1"/>
    <path id="Tracé_71" data-name="Tracé 71" d="M480.983,572.56s-.223,32.828-8.873,51.677c0,0,10.428-24.841,10.428-25.835s5.763-11.423,4.22-14.527S480.983,572.56,480.983,572.56Z" transform="translate(-197.439 -238.618)" opacity="0.1"/>
    <path id="Tracé_72" data-name="Tracé 72" d="M473.552,307.865a12.34,12.34,0,0,1,2.007-8.264,10.181,10.181,0,0,0,7.872,10.73,1.332,1.332,0,0,1-.38-1.459,44.63,44.63,0,0,0,3.581,4.286c1.4,1.23,3.5,1.965,5.142,1.091,2.236-1.206,2.26-4.382,1.682-6.854a32.19,32.19,0,0,0-7.408-14.147,9.8,9.8,0,0,0-7.776-3.954,19.128,19.128,0,0,0-10.048,1.573,26.7,26.7,0,0,0-4.822,3.37l-8.439,6.884a8.012,8.012,0,0,0-2.049,2.158,5.906,5.906,0,0,0-.639,2.26,12.182,12.182,0,0,0,5.678,11.5,8.988,8.988,0,0,1,5.383-8.439,2.339,2.339,0,0,1,.838,1.742l1.778-3.171a3.49,3.49,0,0,1,1.206-1.429c1.1-.6,2.465.109,3.4.958s1.845,1.911,3.1,2.043l.048-4.72" transform="translate(-189.537 -126.067)" opacity="0.1"/>
    <path id="Tracé_73" data-name="Tracé 73" d="M473.568,306.765a12.345,12.345,0,0,1,2.007-8.27,10.187,10.187,0,0,0,7.878,10.73,1.32,1.32,0,0,1-.38-1.453,45.365,45.365,0,0,0,3.581,4.286c1.4,1.236,3.5,1.965,5.142,1.085,2.236-1.206,2.26-4.382,1.682-6.848a32.189,32.189,0,0,0-7.408-14.147,11.856,11.856,0,0,0-4.141-3.219,12.057,12.057,0,0,0-3.617-.735,19.126,19.126,0,0,0-10.048,1.567,27.045,27.045,0,0,0-4.822,3.376L455,300.02a7.927,7.927,0,0,0-2.05,2.158,5.878,5.878,0,0,0-.639,2.26,12.176,12.176,0,0,0,5.678,11.489,9,9,0,0,1,5.383-8.439,2.357,2.357,0,0,1,.838,1.742l1.772-3.159a3.454,3.454,0,0,1,1.206-1.429c1.1-.6,2.465.108,3.4.958s1.845,1.9,3.1,2.043l.048-4.726" transform="translate(-189.553 -125.63)" fill="#3f3d56"/>
    <path id="Tracé_74" data-name="Tracé 74" d="M466.262,482.1c-1.549-.784-27.168,3.213-27.168,3.213a146.6,146.6,0,0,0-14.419-2.881c-10.2-1.676-10.85-11.646-10.85-11.646l-1.115-19.958,3.442-3.014,14.744,9.645a47.632,47.632,0,0,1,0,5.757,8.119,8.119,0,0,0-.494,1.808.6.6,0,0,0,.494.543c1,.253,14.636,2.459,14.636,2.459s31.6-2.164,39.483,8.481a8.005,8.005,0,0,1,1.392,2.628C488.36,486.406,467.666,482.79,466.262,482.1Z" transform="translate(-173.844 -189.066)" fill="#fbbebe"/>
    <path id="Tracé_75" data-name="Tracé 75" d="M497.774,490.541c-1.206.536-1.953.922-1.953.922s-11.308-.332-17.662-2.634-14.075-1.893-14.075-1.893-26.474-4.557-22.369-10.507a.6.6,0,0,0,.494.543c1,.253,14.636,2.459,14.636,2.459s31.6-2.164,39.482,8.481A8,8,0,0,1,497.774,490.541Z" transform="translate(-185.194 -200.434)" opacity="0.1"/>
    <path id="Tracé_76" data-name="Tracé 76" d="M508.782,441.58s1.555,10.977,1.664,11.869.669,11.64,0,12.863-1.664,3.213-1.664,3.213,1.109,2.327-3.327,3.219a45.531,45.531,0,0,0-9.645,3.544s-11.314-.332-17.632-2.658-14.081-1.887-14.081-1.887-33.605-5.769-19.187-12.809,24.618,2.5,24.618,2.5l16.076-.995s5.992-3.665,7.655-3.327a6.154,6.154,0,0,0,3.436-.555l.115-11.646Z" transform="translate(-185.206 -186.591)" fill="#fbbebe"/>
    <path id="Tracé_77" data-name="Tracé 77" d="M409.452,396.769l-3.219-.169-9.753,37.976s10.531-2.664,15.07,0,12.863,3.213,12.863,3.213l-3.1-30.272Z" transform="translate(-167.397 -168.725)" opacity="0.1"/>
    <path id="Tracé_78" data-name="Tracé 78" d="M409.452,395.659l-3.219-.169-9.753,37.976s10.531-2.664,15.07,0,12.863,3.213,12.863,3.213l-3.1-30.272Z" transform="translate(-167.397 -168.284)" fill="#28bfcb"/>
    <path id="Tracé_79" data-name="Tracé 79" d="M535.684,409.57l4.43,1s11.314,16.275,12.2,17.185-4.22,4.22-6.323,4.22-12.417,1.206-15.413,3.99-1.748-11.23-1.748-11.549,3.719-9.162,3.719-9.162Z" transform="translate(-219.866 -173.877)" opacity="0.1"/>
    <path id="Tracé_80" data-name="Tracé 80" d="M535.684,408.47l4.43.995s11.314,16.305,12.2,17.191-4.22,4.219-6.323,4.219-12.417,1.206-15.413,3.99-1.748-11.23-1.748-11.549,3.743-9.193,3.743-9.193Z" transform="translate(-219.866 -173.44)" fill="#28bfcb"/>
    <g id="Groupe_8" data-name="Groupe 8" transform="translate(262.704 171.533)" opacity="0.1">
      <path id="Tracé_81" data-name="Tracé 81" d="M475.544,304.516a8.874,8.874,0,0,1,.03-1.386,12.338,12.338,0,0,0-1.857,4.551v1.682c0,.977,0,1.959-.03,2.936H473.6v.452a2.4,2.4,0,0,0-.03-.464c-1.206-.193-2.068-1.206-2.966-2.013s-2.3-1.579-3.4-.958A3.454,3.454,0,0,0,466,310.743l-1.79,3.159a2.333,2.333,0,0,0-.838-1.736,8.988,8.988,0,0,0-5.383,8.439,12.248,12.248,0,0,1-5.72-9.6,12.188,12.188,0,0,0,5.72,10.929,9,9,0,0,1,5.383-8.439,2.357,2.357,0,0,1,.838,1.742l1.772-3.159a3.455,3.455,0,0,1,1.206-1.429c1.1-.6,2.465.109,3.4.958s1.845,1.9,3.1,2.043q0-2.315.048-4.617A12.278,12.278,0,0,1,475.544,304.516Z" transform="translate(-452.256 -303.13)"/>
      <path id="Tracé_82" data-name="Tracé 82" d="M487.5,313.609c.03-.41.078-.82.139-1.206l.066-1.664a12.2,12.2,0,0,0-.205,2.869Z" transform="translate(-466.251 -306.153)"/>
      <path id="Tracé_83" data-name="Tracé 83" d="M512.05,323.891c-1.646.88-3.743.145-5.142-1.085a44.649,44.649,0,0,1-3.581-4.286,1.332,1.332,0,0,0,.38,1.459,1.424,1.424,0,0,1-.35-.09,39.838,39.838,0,0,0,3.55,4.22c1.386,1.206,3.5,1.965,5.142,1.085s2.116-2.942,1.971-4.949A4.185,4.185,0,0,1,512.05,323.891Z" transform="translate(-472.511 -309.243)"/>
      <path id="Tracé_84" data-name="Tracé 84" d="M498.406,314.867a10.247,10.247,0,0,1-7.511-8.957,10.181,10.181,0,0,0,7.9,10.386A1.326,1.326,0,0,1,498.406,314.867Z" transform="translate(-467.595 -304.234)"/>
    </g>
    <path id="Tracé_85" data-name="Tracé 85" d="M898.96,396.8s-2.375-.332-2.375-3.786-1.7-9.922-1.7-9.922h0s-1.471-11.254-3.5-13.038-4.641-12.261-4.641-12.261-.446-5.684-1.356-6.908-2.14-4.219-3.954-8.493-9.361-7.2-9.361-7.2-13.677-7.933-17.553-10.519h0a5.989,5.989,0,0,1-.989-.747c-.675-.88-3.617-.9-3.617-.9a59.544,59.544,0,0,1-.7-6.2v-.651a20.857,20.857,0,0,0,9.168-11.344c.072-.229.133-.464.2-.7a1.959,1.959,0,0,0,1.206-1.061,21.307,21.307,0,0,1,.79-2.411,8.936,8.936,0,0,1,2.23-1.953c1.917-1.634,2.411-4.376,2.321-6.866-.06-2.025-.386-4.063-.259-6.07a2.385,2.385,0,0,1,.036-.506c.036-.3.078-.6.133-.892.3-1.495.94-2.905,1.3-4.388a5.645,5.645,0,0,0-.446-4.431c-1.236-1.875-3.81-2.248-6.07-2.411-2.562-.217-4.822.06-6.492-2.068a22.733,22.733,0,0,0-2.58-3.11c-.338-.313-3.617-2.321-3.617-2.447a14.654,14.654,0,0,0-10.247-.79c-1.706.494-3.3,1.3-5.033,1.706-3.713.88-7.993-.072-11.151,2.055a13.16,13.16,0,0,0-3.8,4.991q-1.205,2.3-2.447,4.611a29.671,29.671,0,0,0-3.249,7.891,13.355,13.355,0,0,0-.223,1.851h0v.958a3.3,3.3,0,0,0,.036.6,3.435,3.435,0,0,0,.042.374c.042.127.054.41.09.6s.108.537.181.8a1.222,1.222,0,0,0,.109.338c.036.115.133.4.211.6s.084.211.133.313a5.647,5.647,0,0,0,.307.6c.048.078.084.157.133.235a6.845,6.845,0,0,0,.554.808c1.284,1.609,3.189,2.634,4.593,4.141v.675a20.634,20.634,0,0,0,9.452,16.818c0,.229.03.464.042.7a34.412,34.412,0,0,1-.066,5.365,2.544,2.544,0,0,0-2-.892,2.871,2.871,0,0,0-.772.066l-.054-.042h0v.054c-1.326.326-2.96,1.706-4.521,5.63,0,0-4.75,5.353-8.367,5.13s-12.773,5.576-12.773,5.576-8.933,5.793-10.85,11.7A81.783,81.783,0,0,1,783.6,358.8l-11.073,22.737h0L770.5,399.622s1.127,8.023.9,9.253,4.635,12.261,4.635,12.261,16.052,28.2,22.61,29.645l.47-.326a4.109,4.109,0,0,0,.886.326l1.35-.946a14.109,14.109,0,0,1-.109,3.177c-.9,2.791.344,20.959,1.923,24.521s1.019,50.278,1.019,50.278l-.223,4.117a1.745,1.745,0,0,0,.054.362l-.054.977.163.084a11.655,11.655,0,0,1-.163,3.93,43.572,43.572,0,0,0-.8,6.914s-4.521,28.861-2.375,34.66,3.96,12.152,3.96,12.152,2.26,7.233.108,8.439-8.246,3.345-7,6.353c1.145,2.785,5.491,10.247,6.136,11.339l-.054.6-.886,9.6a12.054,12.054,0,0,0,1.019,3.665,6.3,6.3,0,0,0,6.444,4.027c.6-.042,1.3-.109,1.977-.2a85.66,85.66,0,0,0,14.642-3.816,5.768,5.768,0,0,1-1.139-.946h0a3.309,3.309,0,0,1-1.007-2.411c.1-1.754-3.177-10.078-4-12.134l-.187-.458s7.462-7.806,6.221-14.714c0,0-8.258-4.822-5.54-7.475s7.577-10.247,7.577-10.247.223-28.421,0-32.659a35.2,35.2,0,0,1,.416-8.825c.09-.434.2-.862.313-1.29a77.005,77.005,0,0,0,11.369.862q2.086,0,4.219-.084,0,.6.054,1.3c.314,7.041.9,19.392,1.374,23.979.675,6.57,4.406,24.3,4.406,24.3s-7.119,4.563,1.242,15.829c0,0,0,4.075-.555,4.672h0a51,51,0,0,0-1.429,5.889c-.35,2.116-.494,4.268.072,5.377,1.356,2.664,9.494,2.447,9.494,2.447h0a1.294,1.294,0,0,1,.2-.03,11.616,11.616,0,0,1,8.614,2.592c3.092,2.483,14.823,1.4,21.182.6,2.49-.319,4.153-.6,4.153-.6a2.443,2.443,0,0,0,.084-.868h0c-.066-1.561-1.29-4.985-9.584-8.041,0,0-7.8-5.244-7.692-9.813h-1.073c.567-.018.964-.018.964-.018s-3.056-11.146-1.808-12.056-2.49-13.261-2.49-13.261-2.14-20.736-2.26-22.182a12.751,12.751,0,0,1,.567-3.677l-.567-11.375s-.108-3.779,0-5.009a23.521,23.521,0,0,0-.253-3.189c-.054-.422-.108-.862-.169-1.3,2.924-.741,4.822-1.423,4.822-1.423l-.338-39.573c2.483-4.822,2.942-15.407,2.93-22.906,0-4.822-.217-8.391-.217-8.391l3.394-5.54s.784-6.631-.458-8.083a1.392,1.392,0,0,1,.151-1.9,6.311,6.311,0,0,1,.753-.53.954.954,0,0,1-.078-.133,5.991,5.991,0,0,1,.754-.536s-1.206-1.869-.127-2.658c1.013.687,1.917,1.236,2.6,1.628-.048.44-.1.693-.1.693l.289-.6,1.067.6s5.317-10.591,5.2-12.146,3.617-8.138,3.617-8.138.452-3.46,2.49-4.907,1.579-11.929,1.579-11.929.567-5.461,1.923-7.686S898.96,396.8,898.96,396.8Zm-101.726-4.648.1,2.526c-.6-.97-1.037-1.664-1.037-1.664Z" transform="translate(-315.963 -116.115)" fill="url(#linear-gradient-2)"/>
    <path id="Tracé_86" data-name="Tracé 86" d="M952.328,549.2l-1.3,5.546s-10.428-5.335-12.3-12.086,3.141-9.325,3.141-9.325l9.723,4.111Z" transform="translate(-382.617 -223.036)" fill="#fff"/>
    <path id="Tracé_87" data-name="Tracé 87" d="M952.328,549.2l-1.3,5.546s-10.428-5.335-12.3-12.086,3.141-9.325,3.141-9.325l9.723,4.111Z" transform="translate(-382.617 -223.036)" opacity="0.1"/>
    <path id="Tracé_88" data-name="Tracé 88" d="M848.929,858.31s-9.645,3.544-16.275,3.99a6.192,6.192,0,0,1-6.323-4,12.238,12.238,0,0,1-1-3.617l.874-9.554.458-5.082,14.087-3.665,2,6.106.187.458c.8,2.043,4.015,10.326,3.918,12.056a3.309,3.309,0,0,0,.983,2.411A5.6,5.6,0,0,0,848.929,858.31Z" transform="translate(-337.742 -343.411)" fill="#fff"/>
    <path id="Tracé_89" data-name="Tracé 89" d="M945.206,853.014a2.41,2.41,0,0,1-.084.868s-20.627,3.436-24.847,0a11.17,11.17,0,0,0-8.656-2.55s-7.981.217-9.313-2.411c-.555-1.1-.41-3.243-.066-5.347a51.313,51.313,0,0,1,1.4-5.859l.32-.253,1.9-1.525,22.231-.657h.169c-.109,4.545,7.541,9.759,7.541,9.759C943.94,848.053,945.14,851.459,945.206,853.014Z" transform="translate(-368.171 -342.975)" fill="#fff"/>
    <path id="Tracé_90" data-name="Tracé 90" d="M945.21,858.476a2.484,2.484,0,0,1-.09.868s-20.627,3.436-24.841,0a11.169,11.169,0,0,0-8.662-2.55s-7.987.217-9.319-2.411c-.548-1.1-.41-3.243-.066-5.353,3.074.307,7.927,1.073,9.832,2.905,2.881,2.773,7.764,5.546,10.754,5.769C925.179,857.849,939.23,858.295,945.21,858.476Z" transform="translate(-368.169 -348.436)" opacity="0.1"/>
    <path id="Tracé_91" data-name="Tracé 91" d="M849.589,872.152s-9.645,3.544-16.275,3.99a6.192,6.192,0,0,1-6.323-4c2.459.826,5.865,1.688,7.655.9,2.122-.946,9.645-1.549,13.864-1.808a5.483,5.483,0,0,0,1.079.922Z" transform="translate(-338.402 -357.254)" opacity="0.1"/>
    <path id="Tracé_92" data-name="Tracé 92" d="M877.653,375.033c-7.957-3.092-18.192-13.31-15.636-18.084a10.806,10.806,0,0,0,.995-3.834,34.989,34.989,0,0,0,.072-5.425,74.479,74.479,0,0,0-1.067-8.831s24.841.561,23.394,4.219a13.572,13.572,0,0,0-.374,5.021c.12,2.08.416,4.449.729,6.444.428,2.731.868,4.822.868,4.822s-1.525,2.128-2.411,2.242S889.07,379.464,877.653,375.033Z" transform="translate(-352.156 -145.79)" fill="#cf6f80"/>
    <path id="Tracé_93" data-name="Tracé 93" d="M843.467,842.894l-.187.2c-7.426-8.982-16.408,2.218-16.408,2.218l-.133-.241.458-5.082,14.087-3.665,2,6.106Z" transform="translate(-338.303 -343.392)" opacity="0.1"/>
    <path id="Tracé_94" data-name="Tracé 94" d="M929.4,835.9s-5.425-.109-8.319,2.447-16.878.549-16.275,0a2.085,2.085,0,0,0,.313-.922l1.9-1.525,22.231-.657C929.335,835.662,929.4,835.9,929.4,835.9Z" transform="translate(-369.305 -342.958)" opacity="0.1"/>
    <path id="Tracé_95" data-name="Tracé 95" d="M848.661,711.475a16.913,16.913,0,0,0-.916,3.092,35.377,35.377,0,0,0-.416,8.777c.223,4.22,0,32.5,0,32.5s-4.768,7.541-7.432,10.2,5.425,7.432,5.425,7.432c1.206,6.878-6.1,14.642-6.1,14.642-7.426-8.982-16.408,2.212-16.408,2.212s-4.883-8.439-6.1-11.453,4.768-5.094,6.872-6.323-.108-8.439-.108-8.439-1.772-6.323-3.882-12.092,2.327-34.479,2.327-34.479a44.569,44.569,0,0,1,.778-6.884,11.662,11.662,0,0,0,.163-3.906c-.036-.44-.078-.8-.109-1.055s-.054-.362-.054-.362l.084-.145,3.014-5.618S850.108,707.937,848.661,711.475Z" transform="translate(-334.256 -289.069)" fill="#28bfcb"/>
    <path id="Tracé_96" data-name="Tracé 96" d="M925.108,785.249s-5.425-.115-8.318,2.411-16.878.554-16.275,0,.549-4.654.549-4.654c-8.2-11.206-1.206-15.751-1.206-15.751s-3.659-17.632-4.322-24.172c-.464-4.563-1.037-16.878-1.344-23.852-.133-3.014-.211-5.094-.211-5.094l6.643-1.32.862-.169,16.167-3.249s.446,3.014.747,5.479a24.07,24.07,0,0,1,.247,3.177c-.1,1.206,0,4.985,0,4.985l.554,11.308a13.053,13.053,0,0,0-.555,3.659c.115,1.447,2.218,22.068,2.218,22.068s3.659,12.309,2.411,13.195S925.108,785.249,925.108,785.249Z" transform="translate(-365.011 -292.973)" fill="#28bfcb"/>
    <path id="Tracé_97" data-name="Tracé 97" d="M885.674,343.11a13.577,13.577,0,0,0-.374,5.021,20.645,20.645,0,0,1-21.953-.41,74.507,74.507,0,0,0-1.067-8.831S887.121,339.451,885.674,343.11Z" transform="translate(-352.42 -145.801)" opacity="0.1"/>
    <path id="Tracé_98" data-name="Tracé 98" d="M889.823,310.217a20.623,20.623,0,1,1-41.242.494c0-.169,0-.326,0-.494a20.627,20.627,0,0,1,41.255,0Z" transform="translate(-346.978 -126.219)" fill="#cf6f80"/>
    <path id="Tracé_99" data-name="Tracé 99" d="M877.653,384.427c-7.957-3.092-18.192-13.31-15.636-18.084a10.805,10.805,0,0,0,.995-3.834l10.892,8.957,6.739,5.527,5.124-13.038c.428,2.731.868,4.822.868,4.822s-1.525,2.128-2.411,2.242S889.07,388.858,877.653,384.427Z" transform="translate(-352.156 -155.184)" opacity="0.1"/>
    <path id="Tracé_100" data-name="Tracé 100" d="M884.943,404.837l-9.1,152.806-11.863.778-30.724-88.6L838.3,364.625l1.067-22.225,13.659,11.218,6.739,5.527,5.274-13.424,9.807,8.548Z" transform="translate(-331.278 -136.008)" fill="#28bfcb"/>
    <path id="Tracé_101" data-name="Tracé 101" d="M852.7,711.507a16.9,16.9,0,0,0-.916,3.092,87.4,87.4,0,0,1-24.9-7.77l-.163-.084.054-.97v-.506l3.014-5.618S854.151,707.969,852.7,711.507Z" transform="translate(-338.299 -289.1)" opacity="0.1"/>
    <path id="Tracé_102" data-name="Tracé 102" d="M900.8,720.748a61.088,61.088,0,0,1-6.667.766c-.133-3.014-.211-5.094-.211-5.094l6.679-1.35Z" transform="translate(-364.987 -295.226)" opacity="0.1"/>
    <path id="Tracé_103" data-name="Tracé 103" d="M923.384,714.879c-4.286,1.115-10.91,2.369-16.83,1.585l-.084-3.816,16.167-3.249S923.065,712.39,923.384,714.879Z" transform="translate(-369.973 -292.973)" opacity="0.1"/>
    <path id="Tracé_104" data-name="Tracé 104" d="M854.915,578.73c-24.714,4.219-47.349-7.878-47.349-7.878l.217-4.1s.561-46.469-.995-50.031-2.767-21.6-1.887-24.359-3.213-44.347-3.213-44.347l-.663-16.878L776.74,421.27l10.85-22.623a81.727,81.727,0,0,0,3.773-9.765c1.887-5.877,10.645-11.646,10.645-11.646s8.981-5.763,12.532-5.546,8.2-5.1,8.2-5.1c3.436-8.759,6.546-4.822,6.546-4.822a7.747,7.747,0,0,1-.169,1.3c-1.206,9.614,19.494,39.995,19.789,40.537h0l2,48.018,2,60.767Z" transform="translate(-318.442 -154.539)" opacity="0.1"/>
    <path id="Tracé_105" data-name="Tracé 105" d="M853.8,578.73c-24.714,4.219-47.355-7.878-47.355-7.878l.223-4.1s.555-46.469-1-50.031-2.767-21.622-1.881-24.4-3.231-44.329-3.231-44.329l-.669-16.878-24.28-9.868,10.85-22.623a83.049,83.049,0,0,0,3.773-9.759c1.887-5.859,10.675-11.634,10.675-11.634s8.981-5.763,12.526-5.546,8.222-5.094,8.222-5.094c3.442-8.758,7.233-4.822,7.233-4.822,0,.422-.362.6-.169,1.3,2.652,9.325,18.831,39.995,19.126,40.537h0l2,48.018,1.953,60.8Z" transform="translate(-317.993 -154.539)" fill="#fff"/>
    <path id="Tracé_106" data-name="Tracé 106" d="M879.277,405.865c-2.658-1.109-16.739-17.185-16.739-17.185v-3.659c-.512-1.206-3.562-.47-6.028.374l1.061-22.225,1.206,1C861.411,373.49,878.988,405.329,879.277,405.865Z" transform="translate(-350.128 -155.446)" opacity="0.1"/>
    <path id="Tracé_107" data-name="Tracé 107" d="M880.383,403.677c-2.664-1.115-16.745-17.185-16.745-17.185v-3.665c-.512-1.206-3.557-.47-6.028.374l1.043-22.2,1.206.995C862.517,371.3,880.088,403.135,880.383,403.677Z" transform="translate(-350.565 -154.584)" fill="#fff"/>
    <path id="Tracé_108" data-name="Tracé 108" d="M826.986,563.632c.332,0,17.186-1.772,17.186-1.772s10.205,20.073,9.536,24.949-1.881,9.2-5.986,8.439-22.092.6-22.092.6Z" transform="translate(-337.862 -234.368)" opacity="0.1"/>
    <path id="Tracé_109" data-name="Tracé 109" d="M825.876,561.422c.338,0,17.191-1.772,17.191-1.772s10.2,20.1,9.536,24.925-1.887,9.2-5.986,8.439-22.1.6-22.1.6Z" transform="translate(-337.421 -233.49)" fill="#fff"/>
    <path id="Tracé_110" data-name="Tracé 110" d="M841.767,547s15.467,8.318,15.8,10.85-7.872-1.109-9.645-1.555a23,23,0,0,0-3.55-.555l-11.821.32Z" transform="translate(-340.61 -228.466)" fill="#cf6f80"/>
    <ellipse id="Ellipse_22" data-name="Ellipse 22" cx="1.628" cy="1.628" rx="1.628" ry="1.628" transform="translate(523.2 248.201)" opacity="0.1"/>
    <ellipse id="Ellipse_23" data-name="Ellipse 23" cx="1.628" cy="1.628" rx="1.628" ry="1.628" transform="translate(523.2 247.538)" fill="#3f3d56"/>
    <ellipse id="Ellipse_24" data-name="Ellipse 24" cx="1.628" cy="1.628" rx="1.628" ry="1.628" transform="translate(526.196 318.655)" opacity="0.1"/>
    <ellipse id="Ellipse_25" data-name="Ellipse 25" cx="1.628" cy="1.628" rx="1.628" ry="1.628" transform="translate(526.196 317.986)" fill="#3f3d56"/>
    <ellipse id="Ellipse_26" data-name="Ellipse 26" cx="1.628" cy="1.628" rx="1.628" ry="1.628" transform="translate(524.828 283.428)" opacity="0.1"/>
    <ellipse id="Ellipse_27" data-name="Ellipse 27" cx="1.628" cy="1.628" rx="1.628" ry="1.628" transform="translate(524.828 282.765)" fill="#3f3d56"/>
    <path id="Tracé_111" data-name="Tracé 111" d="M932.031,483.027s1.109,1.664,0,2.411.108,2.664.108,2.664-2.767,1.615-1.549,3.08.446,8.041.446,8.041l-3.327,5.54s.2,3.55.211,8.349c0,7.487-.44,18.011-2.875,22.809l.326,39.368s-11.652,4.262-21.4,2.96l-1.447-63.172s2.11-35.824,2.887-42.7a71.527,71.527,0,0,0,.555-10.76s-.332-10.754-1.447-15.739c0,0-1.206-21.628-1.326-27.614-.054-2.863.1-11.218.265-19.163.187-8.686.4-16.878.4-16.878l-2.2-17.415s2.2-.217,2.863.663a6.336,6.336,0,0,0,.964.741h0c3.8,2.568,17.222,10.464,17.222,10.464s7.426,2.954,9.2,7.185,3.014,7.233,3.876,8.439,1.332,6.872,1.332,6.872,2.556,10.428,4.551,12.194,3.43,12.978,3.43,12.978l-17.632,13.864s-1.549,23.063-1.881,23.955S932.031,483.027,932.031,483.027Z" transform="translate(-368.058 -156.09)" fill="#fff"/>
    <path id="Tracé_112" data-name="Tracé 112" d="M932.688,482.887s1.1,1.664,0,2.411.1,2.664.1,2.664-2.767,1.616-1.549,3.08.446,8.041.446,8.041l-3.315,5.54s.2,3.55.217,8.348c0,7.487-.44,18.011-2.875,22.809l.331,39.368s-11.652,4.262-21.4,2.96L903.2,514.938s2.1-35.824,2.887-42.7a70.862,70.862,0,0,0,.549-10.76s-.332-10.754-1.441-15.739c0,0-1.206-21.628-1.332-27.614-.054-2.863.1-11.218.265-19.162.187-8.686.4-16.878.4-16.878l-2.906-17.65s2.906,0,3.575.9a5.71,5.71,0,0,0,.964.741h0c3.8,2.568,17.216,10.464,17.216,10.464s7.408,2.954,9.217,7.185,3.014,7.233,3.876,8.439,1.332,6.872,1.332,6.872,2.556,10.428,4.551,12.194,3.436,12.978,3.436,12.978l-17.632,13.864s-1.549,23.063-1.887,23.955S932.688,482.887,932.688,482.887Z" transform="translate(-368.046 -155.95)" fill="#fff"/>
    <path id="Tracé_113" data-name="Tracé 113" d="M912.005,388.081l1.6,4.641-8.385,8.439c.187-8.686.4-16.878.4-16.878L902.71,366.64s2.905,0,3.575.9a5.726,5.726,0,0,0,.964.741h0l7.125,20.549Z" transform="translate(-368.479 -156.824)" opacity="0.1"/>
    <path id="Tracé_114" data-name="Tracé 114" d="M910.875,385.863l1.6,4.635-8.379,8.439c.181-8.686.4-16.878.4-16.878l-2.911-17.65s2.911,0,3.575.9a6.026,6.026,0,0,0,.964.741h0l7.167,20.567Z" transform="translate(-368.03 -155.938)" fill="#fff"/>
    <path id="Tracé_115" data-name="Tracé 115" d="M889.823,310.217a20.555,20.555,0,0,1-1.013,6.4.856.856,0,0,1-.651-.157c-.163-5.425-2.827-10.525-6.112-14.859a15.738,15.738,0,0,0-3.315-3.436,6.492,6.492,0,0,0-4.5-1.272c-1.808.247-3.406,1.477-5.232,1.634-2.411.2-4.569-1.471-6.962-1.549a6.824,6.824,0,0,0-5.118,2.375,13.961,13.961,0,0,0-2.743,5.081,29.764,29.764,0,0,0-1.531,8.777c-.03,1.688-.193,3.8-1.76,4.418a8.982,8.982,0,0,0-2.273-6.872l-.036-.042v-.494a20.627,20.627,0,0,1,41.255,0Z" transform="translate(-346.978 -126.219)" opacity="0.1"/>
    <path id="Tracé_116" data-name="Tracé 116" d="M873.631,268.59a14.2,14.2,0,0,0-10.018-.784c-1.67.494-3.243,1.3-4.937,1.7-3.617.874-7.836-.072-10.94,2.043a13.058,13.058,0,0,0-3.725,4.967L841.6,281.1a29.8,29.8,0,0,0-3.189,7.836,10.024,10.024,0,0,0,1.537,8.1c1.272,1.615,3.165,2.634,4.551,4.159a9.042,9.042,0,0,1,2.267,6.89c1.567-.6,1.724-2.731,1.76-4.418a29.808,29.808,0,0,1,1.531-8.777,13.962,13.962,0,0,1,2.743-5.081,6.83,6.83,0,0,1,5.118-2.381c2.411.084,4.575,1.754,6.962,1.549,1.808-.151,3.412-1.38,5.232-1.628a6.462,6.462,0,0,1,4.5,1.272,15.437,15.437,0,0,1,3.309,3.436c3.291,4.34,5.962,9.416,6.118,14.859.681.494,1.664-.157,2-.928a22.014,22.014,0,0,1,.778-2.411A8.914,8.914,0,0,1,889,301.629c1.881-1.622,2.351-4.352,2.279-6.83s-.555-4.991-.085-7.426c.283-1.489.922-2.893,1.272-4.37a5.714,5.714,0,0,0-.434-4.406c-1.206-1.863-3.743-2.236-5.955-2.411-2.514-.217-4.762.06-6.365-2.055a23.556,23.556,0,0,0-2.532-3.1C876.844,270.712,873.631,268.723,873.631,268.59Z" transform="translate(-342.842 -117.341)" fill="#512e4e"/>
    <path id="Tracé_117" data-name="Tracé 117" d="M782.818,472.69l-6.293-11.64-2,17.963s1.109,7.981.886,9.2,4.545,12.194,4.545,12.194,15.751,28.06,22.183,29.5l21.7-15.528-5.763-7.318s-2-.778-2.5,0c0,0-10.705-18.409-11.809-19.735s-.892-4-.892-4-1.664-1.772-1.109-3.436-3.183-7.426-3.183-7.426l3.436-3.213Z" transform="translate(-317.564 -194.325)" opacity="0.1"/>
    <path id="Tracé_118" data-name="Tracé 118" d="M775.979,458.84l-1.664,1.332-2,17.963s1.109,7.981.886,9.2,4.551,12.194,4.551,12.194,15.745,28.06,22.177,29.5l21.736-15.528-5.769-7.318s-2-.778-2.5,0c0,0-10.7-18.409-11.809-19.735s-.886-4-.886-4-1.664-1.772-1.109-3.436-3.219-7.426-3.219-7.426l3.436-3.213Z" transform="translate(-316.686 -193.447)" fill="#fff"/>
    <path id="Tracé_119" data-name="Tracé 119" d="M941.369,568.55c1.206,1.465.446,8.047.446,8.047l-3.327,5.5s.2,3.557.211,8.355L933.1,592.2a3.327,3.327,0,0,1-4.316-3.279l.97-31.1,13.05,4.985c-1.109.772.109,2.664.109,2.664S940.151,567.085,941.369,568.55Z" transform="translate(-378.837 -232.764)" opacity="0.1"/>
    <path id="Tracé_120" data-name="Tracé 120" d="M942.477,567.446c1.206,1.459.446,8.041.446,8.041L939.608,581s.2,3.55.217,8.349l-5.7,1.778a3.249,3.249,0,0,1-4.219-3.2l.97-31.212,13.044,5c-1.115.771.1,2.664.1,2.664S941.26,565.981,942.477,567.446Z" transform="translate(-379.282 -232.323)" fill="#fff"/>
    <path id="Tracé_121" data-name="Tracé 121" d="M951.059,546.7s-.886,5.66-3.1,5.992-3.213,9.156-5.425,8.849-.748-8.21-.669-9.741-2.411-7.873-.554-9.313,7.764,0,7.764,0Z" transform="translate(-383.536 -226.419)" fill="#cf6f80"/>
    <path id="Tracé_122" data-name="Tracé 122" d="M954.219,472.039,958.4,463.6s1.67,6.432,1.67,9.868,2.327,3.773,2.327,3.773,2.55,3.014,1.206,5.214-1.881,7.649-1.881,7.649.44,10.422-1.555,11.863-2.441,4.882-2.441,4.882-3.659,6.54-3.544,8.1-5.1,12.086-5.1,12.086,2.55-13.086-12.309-18.741c0,0-.115-4.436.995-5.654s2.839-1.808,1.754-7.933-.314-13.508-.314-14.985,3.327-10.681,3.327-10.681Z" transform="translate(-382.006 -195.338)" opacity="0.1"/>
    <path id="Tracé_123" data-name="Tracé 123" d="M956.969,461.6l3.653,1.206s1.67,6.432,1.67,9.868,2.327,3.773,2.327,3.773,2.55,3.014,1.206,5.214-1.887,7.649-1.887,7.649.446,10.422-1.549,11.863-2.411,4.883-2.411,4.883-3.659,6.54-3.544,8.1-5.106,12.086-5.106,12.086,2.55-13.086-12.309-18.741c0,0-.109-4.436,1-5.654s2.839-1.808,1.754-7.933-.313-13.508-.313-14.985,3.327-10.681,3.327-10.681Z" transform="translate(-382.9 -194.544)" fill="#fff"/>
    <path id="Tracé_124" data-name="Tracé 124" d="M834.92,823.173s5.823-3.659,9.645-1S834.92,823.173,834.92,823.173Z" transform="translate(-341.552 -337.383)" opacity="0.1"/>
    <path id="Tracé_125" data-name="Tracé 125" d="M910,805.679a11.788,11.788,0,0,1,9.482,4C923.81,814.335,910,805.679,910,805.679Z" transform="translate(-371.375 -331.203)" opacity="0.1"/>
    <g id="Groupe_9" data-name="Groupe 9" transform="translate(495.318 163.172)" opacity="0.1">
      <path id="Tracé_126" data-name="Tracé 126" d="M894.669,312.662c-.742.645-1.694,1.1-2.188,1.947a22.483,22.483,0,0,0-.772,2.411c-.338.778-1.32,1.423-2.007.928-.157-5.425-2.827-10.519-6.112-14.859a15.415,15.415,0,0,0-3.309-3.43,6.48,6.48,0,0,0-4.5-1.278c-1.808.247-3.4,1.477-5.226,1.634-2.411.2-4.575-1.471-6.968-1.549a6.8,6.8,0,0,0-5.112,2.375,13.962,13.962,0,0,0-2.743,5.081A29.805,29.805,0,0,0,854.2,314.7c-.036,1.682-.193,3.779-1.748,4.406a8.335,8.335,0,0,1,0,1.344c1.573-.6,1.73-2.731,1.766-4.418a29.8,29.8,0,0,1,1.531-8.777,13.959,13.959,0,0,1,2.743-5.081,6.824,6.824,0,0,1,5.112-2.381c2.411.084,4.581,1.754,6.968,1.549,1.808-.151,3.412-1.38,5.226-1.628a6.48,6.48,0,0,1,4.5,1.272,15.446,15.446,0,0,1,3.309,3.436c3.285,4.34,5.955,9.415,6.112,14.859.687.494,1.67-.157,2.007-.928a23.4,23.4,0,0,1,.772-2.411,8.946,8.946,0,0,1,2.188-1.947c1.881-1.621,2.351-4.352,2.279-6.83v-.229A7.927,7.927,0,0,1,894.669,312.662Z" transform="translate(-843.833 -292.872)"/>
      <path id="Tracé_127" data-name="Tracé 127" d="M844.487,315.4c-1.38-1.525-3.273-2.55-4.545-4.165a8.746,8.746,0,0,1-1.754-4.931,9.288,9.288,0,0,0,1.754,6.263c1.272,1.615,3.165,2.634,4.545,4.159a9.043,9.043,0,0,1,2.279,5.377A9.042,9.042,0,0,0,844.487,315.4Z" transform="translate(-838.155 -296.029)"/>
      <path id="Tracé_128" data-name="Tracé 128" d="M927.264,290.423c-.356,1.477-.989,2.881-1.278,4.37a13.962,13.962,0,0,0-.187,3.05,11.7,11.7,0,0,1,.187-1.718c.289-1.489.922-2.893,1.278-4.37a7.574,7.574,0,0,0,.2-2.5A8.361,8.361,0,0,1,927.264,290.423Z" transform="translate(-872.962 -289.26)"/>
    </g>
    <ellipse id="Ellipse_28" data-name="Ellipse 28" cx="58.735" cy="9.434" rx="58.735" ry="9.434" transform="translate(20.977 486.796)" fill="#6c63ff" opacity="0.1"/>
    <rect id="Rectangle_48" data-name="Rectangle 48" width="3.779" height="85.095" transform="translate(77.826 315.508)" fill="#535461"/>
    <path id="Tracé_129" data-name="Tracé 129" d="M157.425,678.925l-.241,3.834-.332,5.425-.139,2.254-.338,5.425-.145,2.255-.332,5.425-3.816,61.526a10.416,10.416,0,0,1-10.4,9.777H121.873a10.41,10.41,0,0,1-10.4-9.819L107.659,703.5l-.332-5.425-.139-2.254-.344-5.425-.139-2.255-.332-5.425-.241-3.834a5.425,5.425,0,0,1,5.389-5.733h40.519a5.425,5.425,0,0,1,5.383,5.775Z" transform="translate(-52.064 -278.574)" fill="#3f3d56"/>
    <path id="Tracé_130" data-name="Tracé 130" d="M141.395,670.52l-.338,5.413H90.918l-.338-5.413Z" transform="translate(-36.275 -266.342)" fill="#9d9cb5"/>
    <path id="Tracé_131" data-name="Tracé 131" d="M141.232,683.24l-.332,5.413H91.708l-.338-5.413Z" transform="translate(-36.589 -271.394)" fill="#9d9cb5"/>
    <path id="Tracé_132" data-name="Tracé 132" d="M141.07,695.97l-.332,5.407H92.5l-.338-5.407Z" transform="translate(-36.903 -276.451)" fill="#9d9cb5"/>
    <path id="Tracé_133" data-name="Tracé 133" d="M65,583.818c22.014,15.926,31.182,40.833,31.182,40.833s-26.523-.91-48.542-16.836S16.44,567,16.44,567,42.963,567.892,65,583.818Z" transform="translate(-16.44 -236.41)" fill="#28bfcb"/>
    <path id="Tracé_134" data-name="Tracé 134" d="M16.44,567s27.529,15.281,36.36,27.933,43.358,29.729,43.358,29.729" transform="translate(-16.44 -236.41)" fill="#28bfcb" stroke="#535461" stroke-miterlimit="10" stroke-width="2"/>
    <path id="Tracé_135" data-name="Tracé 135" d="M103.12,535.642c11.983,8.662,16.974,22.219,16.974,22.219s-14.467-.494-26.42-9.156S76.7,526.48,76.7,526.48,91.143,526.974,103.12,535.642Z" transform="translate(-40.376 -220.315)" fill="#28bfcb"/>
    <path id="Tracé_136" data-name="Tracé 136" d="M76.7,526.48s14.985,8.319,19.8,15.2,23.6,16.179,23.6,16.179" transform="translate(-40.376 -220.315)" fill="#28bfcb" stroke="#535461" stroke-miterlimit="10" stroke-width="2"/>
    <path id="Tracé_137" data-name="Tracé 137" d="M166.583,564.292c-13.762,15.124-16.673,34.889-16.673,34.889s19.4-4.762,33.153-19.892S199.736,544.4,199.736,544.4,180.345,549.168,166.583,564.292Z" transform="translate(-69.456 -227.433)" fill="#28bfcb"/>
    <path id="Tracé_138" data-name="Tracé 138" d="M199.748,544.41s-17.927,15.5-22.484,26.185-27.354,28.59-27.354,28.59" transform="translate(-69.456 -227.437)" fill="#28bfcb" stroke="#535461" stroke-miterlimit="10" stroke-width="2"/>
  </g>
</svg>
