<svg xmlns="http://www.w3.org/2000/svg" width="68.267" height="68.267" viewBox="0 0 68.267 68.267"><defs><style>.a{fill:#455a64;}.b{fill:#cfd8dc;}.c{fill:#546e7a;}.d{fill:#4caf50;}.e{fill:#f44336;}.f{fill:#ffc107;}.g{fill:#fafafa;}.h{fill:#2196f3;}</style></defs><path class="a" d="M68.267,7.42v7.42H0V7.42A7.42,7.42,0,0,1,7.42,0H60.847A7.42,7.42,0,0,1,68.267,7.42Z"/><path class="b" d="M68.267,106.667v46.006a7.42,7.42,0,0,1-7.42,7.42H7.42A7.42,7.42,0,0,1,0,152.673V106.667Z" transform="translate(0 -91.826)"/><path class="c" d="M108.15,384h14.841a1.484,1.484,0,0,1,1.484,1.484v5.936a1.484,1.484,0,0,1-1.484,1.484H108.15a1.484,1.484,0,0,1-1.484-1.484v-5.936A1.484,1.484,0,0,1,108.15,384Z" transform="translate(-91.825 -330.574)"/><path class="d" d="M257.484,384h14.841a1.484,1.484,0,0,1,1.484,1.484v5.936a1.484,1.484,0,0,1-1.484,1.484H257.484A1.484,1.484,0,0,1,256,391.42v-5.936A1.484,1.484,0,0,1,257.484,384Z" transform="translate(-220.382 -330.574)"/><circle class="e" cx="1.484" cy="1.484" r="1.484" transform="translate(5.936 5.936)"/><circle class="f" cx="1.484" cy="1.484" r="1.484" transform="translate(11.872 5.936)"/><circle class="d" cx="1.484" cy="1.484" r="1.484" transform="translate(17.809 5.936)"/><circle class="g" cx="14.841" cy="14.841" r="14.841" transform="translate(19.293 19.293)"/><g transform="translate(17.809 17.809)"><path class="h" d="M144.325,160.649a16.325,16.325,0,1,1,16.325-16.325A16.325,16.325,0,0,1,144.325,160.649Zm0-29.681a13.357,13.357,0,1,0,13.357,13.357A13.357,13.357,0,0,0,144.325,130.968Z" transform="translate(-128 -128)"/><circle class="h" cx="5.936" cy="5.936" r="5.936" transform="translate(10.388 7.42)"/><path class="h" d="M180.448,278.507a14.792,14.792,0,0,0,10.483-4.339,11.062,11.062,0,0,0-20.97,0A14.794,14.794,0,0,0,180.448,278.507Z" transform="translate(-164.124 -247.342)"/></g></svg>